<?xml version="1.0" standalone="no"?><!DOCTYPE svg PUBLIC "-//W3C//DTD SVG 1.1//EN" "http://www.w3.org/Graphics/SVG/1.1/DTD/svg11.dtd"><svg t="1660749319192" class="icon" viewBox="0 0 1024 1024" version="1.1" xmlns="http://www.w3.org/2000/svg" p-id="15119" xmlns:xlink="http://www.w3.org/1999/xlink" width="300" height="300"><defs><style type="text/css">@font-face { font-family: feedback-iconfont; src: url("//at.alicdn.com/t/font_1031158_u69w8yhxdu.woff2?t=1630033759944") format("woff2"), url("//at.alicdn.com/t/font_1031158_u69w8yhxdu.woff?t=1630033759944") format("woff"), url("//at.alicdn.com/t/font_1031158_u69w8yhxdu.ttf?t=1630033759944") format("truetype"); }
</style></defs><path d="M537.6 154.688l-13.632-0.256a96 96 0 0 0-94.72 72.704l-39.552 158.208a32 32 0 0 1-31.04 24.256H281.6a96 96 0 0 0-96 96v256a96 96 0 0 0 96 96h457.856a96 96 0 0 0 94.656-80.128l42.624-254.144a96 96 0 0 0 1.28-15.488l-0.384-9.28a96 96 0 0 0-95.232-87.104l-135.872-0.64a32 32 0 0 1-31.68-35.2l12.48-125.312 0.128-2.816A91.328 91.328 0 0 0 537.6 154.688z m-14.72 63.744l13.696 0.256c13.44 0.192 24.384 10.048 26.496 22.848l0.32 6.016-15.744 156.8a64 64 0 0 0 63.424 70.4l171.072 0.704a32 32 0 0 1 31.424 37.312l-42.56 254.08a32 32 0 0 1-31.552 26.752H281.6a32 32 0 0 1-32-32v-256a32 32 0 0 1 32-32h77.056a96 96 0 0 0 93.12-72.704l39.552-158.208a32 32 0 0 1 31.552-24.256z" fill="#FF7960" p-id="15120"></path></svg>